<svg xmlns="http://www.w3.org/2000/svg" xmlns:xlink="http://www.w3.org/1999/xlink" version="1.1" width="256" height="256" viewBox="0 0 256 256" xml:space="preserve">
<g style="stroke: none; stroke-width: 0; stroke-dasharray: none; stroke-linecap: butt; stroke-linejoin: miter; stroke-miterlimit: 10; fill: none; fill-rule: nonzero; opacity: 1;" transform="translate(1.4065934065934016 1.4065934065934016) scale(2.81 2.81)">
	<polygon points="56.86,88.5 77.61,88.5 77.61,35.14 88.5,35.14 45,1.5 1.5,35.14 12.39,35.14 12.39,88.5 " style="stroke: none; stroke-width: 1; stroke-dasharray: none; stroke-linecap: butt; stroke-linejoin: miter; stroke-miterlimit: 10; fill: rgb(0,0,0); fill-rule: nonzero; opacity: 1;" transform="  matrix(1 0 0 1 0 0) "/>
	<path d="M 77.612 90 H 12.388 c -0.829 0 -1.5 -0.672 -1.5 -1.5 V 36.637 H 1.5 c -0.642 0 -1.212 -0.408 -1.419 -1.015 c -0.208 -0.607 -0.006 -1.279 0.502 -1.671 l 43.5 -33.637 c 0.54 -0.418 1.295 -0.418 1.835 0 l 43.5 33.637 c 0.507 0.393 0.709 1.064 0.502 1.671 c -0.208 0.607 -0.778 1.015 -1.42 1.015 h -9.388 V 88.5 C 79.112 89.328 78.44 90 77.612 90 z M 13.888 87 h 62.225 V 35.137 c 0 -0.829 0.672 -1.5 1.5 -1.5 h 6.496 L 45 3.396 L 5.892 33.637 h 6.496 c 0.829 0 1.5 0.671 1.5 1.5 V 87 z" style="stroke: none; stroke-width: 1; stroke-dasharray: none; stroke-linecap: butt; stroke-linejoin: miter; stroke-miterlimit: 10; fill: rgb(0,0,0); fill-rule: nonzero; opacity: 1;" transform=" matrix(1 0 0 1 0 0) " stroke-linecap="round"/>
</g>
</svg>